<?xml version="1.0" standalone="no"?>
<!DOCTYPE svg PUBLIC "-//W3C//DTD SVG 20010904//EN"
 "http://www.w3.org/TR/2001/REC-SVG-20010904/DTD/svg10.dtd">
<svg version="1.0" xmlns="http://www.w3.org/2000/svg"
 width="500.000000pt" height="500.000000pt" viewBox="0 0 500.000000 500.000000"
 preserveAspectRatio="xMidYMid meet">
<metadata>
Created by potrace 1.16, written by Peter Selinger 2001-2019
</metadata>
<g transform="translate(0.000000,500.000000) scale(0.100000,-0.100000)"
fill="#000000" stroke="none">
<path d="M2057 4175 c-236 -73 -431 -136 -435 -140 -21 -21 -29 -354 -11 -513
65 -598 354 -1011 826 -1182 60 -22 63 -22 115 -5 96 31 233 102 317 165 293
217 460 534 517 982 12 99 15 184 12 340 -2 114 -6 209 -8 212 -8 7 -877 276
-892 275 -7 0 -206 -60 -441 -134z m861 -42 c309 -96 416 -133 424 -147 14
-26 13 -381 -1 -491 -29 -220 -70 -365 -151 -530 -33 -66 -88 -159 -124 -206
-114 -151 -290 -283 -471 -354 l-91 -35 -57 19 c-132 46 -281 138 -390 240
-210 199 -343 487 -392 851 -15 108 -19 401 -7 479 l7 43 410 128 c226 71 415
129 420 129 6 1 196 -56 423 -126z"/>
<path d="M2412 3968 c-7 -7 -12 -30 -12 -53 0 -57 -19 -79 -104 -114 -81 -34
-93 -33 -144 11 -18 15 -41 28 -50 28 -25 0 -122 -101 -122 -127 0 -12 14 -38
30 -56 36 -42 37 -60 5 -139 -33 -82 -49 -98 -97 -98 -71 0 -78 -10 -78 -103
0 -51 5 -88 12 -95 7 -7 31 -12 54 -12 54 0 76 -20 108 -97 33 -80 33 -101 -4
-143 -16 -19 -29 -44 -30 -55 0 -27 99 -125 126 -125 11 0 33 14 49 30 37 39
73 39 158 1 72 -33 87 -51 87 -108 0 -56 12 -63 107 -63 80 0 84 1 93 26 6 14
10 40 10 58 0 45 15 60 87 90 81 34 108 33 150 -4 49 -43 71 -39 132 24 28 30
51 61 51 69 0 9 -16 34 -35 57 -19 23 -35 49 -35 57 0 29 62 164 80 173 10 6
37 10 59 10 59 0 71 18 71 105 0 87 -12 105 -71 105 -22 0 -49 4 -59 10 -18 9
-80 144 -80 173 0 8 16 34 35 57 19 23 35 48 35 56 0 22 -89 113 -117 120 -17
5 -32 -2 -57 -24 -52 -45 -66 -46 -148 -12 -84 35 -98 50 -98 100 0 19 -7 46
-16 58 -13 19 -24 22 -93 22 -46 0 -82 -5 -89 -12z m223 -329 c-14 -42 -255
-662 -260 -667 -3 -3 -8 -2 -12 1 -5 5 166 466 243 655 14 35 40 46 29 11z
m-75 -60 c0 -22 -193 -508 -200 -504 -5 3 -6 13 -3 24 3 13 -11 31 -56 66 -65
51 -73 69 -73 157 1 70 15 96 78 146 40 32 54 49 52 65 -2 17 6 25 42 39 50
19 160 24 160 7z m83 -48 c-3 -14 11 -31 54 -66 61 -49 82 -85 82 -145 1 -71
-16 -105 -80 -155 -46 -36 -59 -52 -56 -67 8 -29 -61 -58 -140 -58 -34 0 -64
3 -66 8 -2 4 38 115 89 247 52 132 96 246 99 253 7 20 24 5 18 -17z m-308 0
c3 -5 -50 -53 -117 -107 -68 -53 -127 -100 -131 -104 -4 -4 51 -53 123 -109
72 -56 128 -107 124 -112 -3 -5 -11 -6 -17 -2 -39 24 -262 207 -264 216 -2 9
261 226 274 227 1 0 4 -4 8 -9z m493 -111 c67 -52 121 -100 119 -107 -2 -9
-225 -192 -264 -216 -6 -4 -14 -3 -17 2 -4 5 52 56 124 112 103 81 128 105
118 114 -7 6 -66 53 -131 104 -64 51 -114 97 -111 102 6 11 6 11 162 -111z"/>
<path d="M1585 2110 c-39 -16 -63 -56 -104 -172 -50 -141 -52 -184 -13 -226
32 -34 100 -57 147 -49 25 4 33 1 41 -16 7 -18 19 -23 67 -25 62 -3 87 8 87
38 0 21 -19 30 -67 30 l-35 0 36 40 c53 58 60 110 16 110 -11 0 -27 -15 -40
-38 -38 -68 -119 -95 -175 -58 -33 22 -32 45 10 161 47 128 51 135 82 135 24
0 25 -3 20 -34 -6 -36 6 -56 34 -56 26 0 49 39 49 81 0 67 -82 110 -155 79z"/>
<path d="M1983 2100 c-39 -23 -43 -30 -93 -171 -55 -155 -52 -198 19 -242 44
-27 140 -30 186 -5 28 14 32 14 60 -3 38 -24 61 -24 110 1 37 19 40 19 58 3
26 -24 160 -27 180 -4 8 9 38 85 67 169 29 84 62 164 72 178 22 28 65 32 75 8
3 -9 -13 -71 -36 -138 -23 -66 -41 -135 -41 -151 0 -71 68 -104 139 -67 l39
21 41 -21 c49 -24 115 -19 154 13 14 10 40 19 59 19 18 1 44 7 58 14 23 13 27
12 62 -19 90 -82 237 -36 262 81 9 41 -11 90 -64 156 -42 53 -51 92 -24 102
26 10 33 7 56 -19 25 -29 53 -32 66 -7 12 21 1 51 -28 77 -16 15 -36 20 -77
20 -50 0 -57 -3 -89 -37 -52 -57 -44 -98 37 -201 47 -59 51 -96 13 -126 -15
-12 -36 -21 -48 -21 -32 0 -66 28 -66 53 0 31 -27 67 -50 67 -11 0 -27 -12
-37 -27 -20 -33 -42 -53 -59 -53 -9 0 1 39 28 118 45 128 46 155 4 197 -28 27
-81 40 -131 31 -59 -11 -88 -52 -136 -192 -49 -142 -74 -187 -107 -192 -32 -5
-29 15 23 167 47 135 49 158 17 193 -20 23 -77 33 -108 19 -19 -8 -29 -8 -44
2 -36 22 -53 -3 -117 -184 -34 -96 -69 -179 -79 -186 -23 -17 -53 -17 -60 0
-3 8 20 83 51 168 30 84 55 166 55 181 0 24 -4 28 -29 28 -16 0 -34 -7 -41
-15 -11 -13 -15 -13 -33 0 -32 22 -89 19 -128 -8 -36 -24 -42 -37 -109 -231
-41 -121 -55 -135 -127 -136 -45 0 -83 25 -83 54 0 25 72 220 88 239 8 9 23
17 33 17 14 0 19 -9 21 -42 3 -37 6 -43 27 -46 32 -5 51 21 51 69 0 51 -8 67
-41 84 -39 21 -88 19 -126 -5z m1071 -56 c21 -20 20 -25 -13 -118 -24 -67 -32
-80 -59 -92 -34 -14 -43 -49 -20 -72 17 -17 -3 -34 -37 -30 -51 6 -52 25 -4
159 54 154 90 196 133 153z m-702 -11 c10 -9 18 -21 18 -27 0 -24 -81 -230
-97 -248 -10 -11 -27 -18 -42 -16 -39 5 -37 39 8 169 48 135 71 160 113 122z"/>
<path d="M3635 2110 c-41 -16 -65 -59 -115 -200 -55 -155 -57 -181 -16 -219
32 -30 83 -36 126 -14 34 17 36 17 73 -1 73 -36 154 7 196 105 25 56 22 79 -8
79 -14 0 -27 -14 -42 -42 -29 -58 -58 -88 -86 -88 -34 0 -30 20 33 200 31 87
54 166 51 174 -8 20 -66 21 -73 2 -5 -12 -9 -12 -32 0 -30 15 -76 17 -107 4z
m76 -70 c10 -6 19 -21 19 -34 0 -37 -69 -218 -92 -243 -25 -27 -66 -30 -75 -6
-8 20 64 236 90 270 21 26 29 28 58 13z"/>
<path d="M1315 2080 c-9 -30 12 -50 51 -50 19 0 34 -4 34 -8 0 -16 -92 -267
-102 -279 -19 -23 -55 -16 -62 12 -5 18 -13 25 -31 25 -28 0 -49 -31 -40 -60
24 -75 160 -80 207 -8 12 19 138 369 138 384 0 2 -42 4 -94 4 -87 0 -95 -2
-101 -20z"/>
</g>
</svg>
